<svg width="306" height="306" viewBox="0 0 306 306" fill="none" xmlns="http://www.w3.org/2000/svg">
<path d="M208.67 249.695L208.956 249.693L209.1 249.446L265.558 152.57L265.704 152.32L265.559 152.069L209.891 55.6488L209.746 55.3977L209.456 55.3988L97.3299 55.8549L97.044 55.856L96.9 56.1031L40.4421 152.979L40.296 153.23L40.441 153.481L96.1091 249.901L96.2541 250.152L96.5441 250.151L208.67 249.695Z" fill="black" stroke="white"/>
<path d="M173.676 190.532L152.897 159.364C152.897 159.364 152.897 159.364 152.55 159.364C152.204 158.671 151.165 157.978 150.126 157.978C149.087 157.978 148.048 158.671 147.355 159.364C147.355 159.364 147.355 159.364 147.009 159.364L126.23 190.532C125.191 192.264 125.537 194.342 127.269 195.381C129 196.42 131.078 196.074 132.117 194.342L146.663 172.524V199.537C146.663 201.615 148.048 203 150.126 203C152.204 203 153.589 201.615 153.589 199.537V172.87L168.135 194.688C168.827 195.727 169.866 196.074 170.905 196.074C171.598 196.074 172.291 195.727 172.983 195.381C174.368 194.342 174.715 192.264 173.676 190.532Z" fill="#DCDCDC"/>
<path d="M172.291 147.242C171.944 147.242 171.252 147.242 170.905 146.896C170.213 146.55 169.52 145.857 169.174 145.164L159.13 120.229C158.438 118.498 159.13 116.42 161.208 115.727L192.377 103.26C194.109 102.567 196.187 103.26 196.879 105.338L206.923 130.273C207.615 132.004 206.923 134.082 204.845 134.775L173.676 147.242C172.983 146.896 172.637 147.242 172.291 147.242Z" fill="#DCDCDC"/>
<path d="M150.126 164.905C142.507 164.905 136.273 158.671 136.273 151.052C136.273 143.433 142.507 137.199 150.126 137.199C157.745 137.199 163.979 143.433 163.979 151.052C163.979 158.671 157.745 164.905 150.126 164.905Z" fill="#DCDCDC"/>
<path d="M129.347 151.052C129.347 139.623 138.697 130.273 150.126 130.273C152.204 130.273 153.936 130.619 156.013 130.965L152.55 122.654L121.035 135.121C119.996 135.814 119.65 136.506 118.957 137.199C118.957 137.892 118.957 138.931 118.957 139.623L101.295 146.55C99.5633 147.242 98.5243 149.32 99.217 151.052L104.065 163.519C104.412 164.212 105.104 164.905 105.797 165.251C106.143 165.597 106.836 165.597 107.182 165.597C107.529 165.597 108.221 165.597 108.568 165.251L126.23 158.325C126.923 159.017 127.962 159.71 129.001 159.71C129.347 159.71 129.693 159.71 130.386 159.364H130.732C130.039 156.593 129.347 153.823 129.347 151.052Z" fill="#DCDCDC"/>
</svg>
