<svg width="306" height="306" viewBox="0 0 306 306" fill="none" xmlns="http://www.w3.org/2000/svg">
<path d="M208.67 249.695L208.956 249.693L209.1 249.446L265.558 152.57L265.704 152.32L265.559 152.069L209.891 55.6488L209.746 55.3977L209.456 55.3988L97.3299 55.8549L97.044 55.856L96.9 56.1031L40.4421 152.979L40.296 153.23L40.441 153.481L96.1091 249.901L96.2541 250.152L96.5441 250.151L208.67 249.695Z" fill="black" stroke="white"/>
<path d="M175.156 192.784L153.13 159.745C153.13 159.745 153.13 159.745 152.763 159.745C152.396 159.011 151.295 158.277 150.193 158.277C149.092 158.277 147.991 159.011 147.257 159.745C147.257 159.745 147.257 159.745 146.89 159.745L124.864 192.784C123.762 194.62 124.129 196.822 125.965 197.924C127.8 199.025 130.003 198.658 131.104 196.822L146.522 173.695V202.329C146.522 204.532 147.991 206 150.193 206C152.396 206 153.864 204.532 153.864 202.329V174.062L169.283 197.19C170.017 198.291 171.118 198.658 172.219 198.658C172.954 198.658 173.688 198.291 174.422 197.924C175.89 196.822 176.258 194.62 175.156 192.784Z" fill="#DCDCDC"/>
<path d="M173.688 146.897C173.321 146.897 172.587 146.897 172.22 146.53C171.485 146.163 170.751 145.429 170.384 144.694L159.738 118.263C159.004 116.428 159.738 114.225 161.941 113.491L194.98 100.275C196.815 99.5411 199.018 100.275 199.752 102.478L210.398 128.909C211.132 130.745 210.398 132.947 208.195 133.681L175.156 146.897C174.422 146.53 174.055 146.897 173.688 146.897Z" fill="#DCDCDC"/>
<path d="M150.193 165.619C142.117 165.619 135.509 159.011 135.509 150.935C135.509 142.859 142.117 136.251 150.193 136.251C158.269 136.251 164.877 142.859 164.877 150.935C164.877 159.011 158.269 165.619 150.193 165.619Z" fill="#DCDCDC"/>
<path d="M128.168 150.935C128.168 138.821 138.079 128.909 150.194 128.909C152.396 128.909 154.232 129.276 156.434 129.643L152.763 120.833L119.357 134.048C118.256 134.783 117.889 135.517 117.155 136.251C117.155 136.985 117.155 138.087 117.155 138.821L98.4326 146.163C96.5971 146.897 95.4958 149.1 96.23 150.935L101.369 164.151C101.736 164.885 102.471 165.619 103.205 165.986C103.572 166.353 104.306 166.353 104.673 166.353C105.04 166.353 105.775 166.353 106.142 165.986L124.864 158.644C125.598 159.378 126.699 160.113 127.801 160.113C128.168 160.113 128.535 160.113 129.269 159.745H129.636C128.902 156.809 128.168 153.872 128.168 150.935Z" fill="#DCDCDC"/>
</svg>
