<svg width="113" height="113" viewBox="0 0 113 113" fill="none" xmlns="http://www.w3.org/2000/svg">
<g filter="url(#filter0_i_351_31)">
<path d="M90.8175 35.3051C91.4298 35.662 91.8076 36.3163 91.8105 37.025L91.9692 76.0558C91.9721 76.7733 91.5905 77.4373 90.9692 77.796L57.4338 97.1577C56.8124 97.5165 56.0466 97.5149 55.4267 97.1537L21.7044 77.5007C21.092 77.1439 20.7143 76.4896 20.7114 75.7809L20.5527 36.75C20.5498 36.0326 20.9313 35.3686 21.5527 35.0098L55.0881 15.6481C55.7094 15.2894 56.4753 15.291 57.0952 15.6522L90.8175 35.3051Z" fill="#D9D9D9" fill-opacity="0.03"/>
</g>
<path d="M92.4692 76.0538L92.3105 37.0229C92.3069 36.137 91.8347 35.3192 91.0693 34.8731L57.3469 15.2202C56.5721 14.7687 55.6148 14.7667 54.8381 15.2151L21.3027 34.5768C20.526 35.0252 20.049 35.8553 20.0527 36.7521L20.2114 75.7829C20.215 76.6688 20.6872 77.4867 21.4526 77.9327L55.175 97.5856C55.9498 98.0372 56.9071 98.0391 57.6838 97.5907L91.2192 78.229C91.9959 77.7806 92.4728 76.9506 92.4692 76.0538Z" stroke="white"/>
<g filter="url(#filter1_d_351_31)">
<path d="M71 48.3773L56.0056 69.8059L41 48.3773L71 48.3773Z" fill="white"/>
</g>
<defs>
<filter id="filter0_i_351_31" x="19.5527" y="14.3802" width="73.4165" height="84.0455" filterUnits="userSpaceOnUse" color-interpolation-filters="sRGB">
<feFlood flood-opacity="0" result="BackgroundImageFix"/>
<feBlend mode="normal" in="SourceGraphic" in2="BackgroundImageFix" result="shape"/>
<feColorMatrix in="SourceAlpha" type="matrix" values="0 0 0 0 0 0 0 0 0 0 0 0 0 0 0 0 0 0 127 0" result="hardAlpha"/>
<feOffset/>
<feGaussianBlur stdDeviation="8.4"/>
<feComposite in2="hardAlpha" operator="arithmetic" k2="-1" k3="1"/>
<feColorMatrix type="matrix" values="0 0 0 0 1 0 0 0 0 1 0 0 0 0 1 0 0 0 1 0"/>
<feBlend mode="normal" in2="shape" result="effect1_innerShadow_351_31"/>
</filter>
<filter id="filter1_d_351_31" x="37" y="44.3773" width="38" height="29.4286" filterUnits="userSpaceOnUse" color-interpolation-filters="sRGB">
<feFlood flood-opacity="0" result="BackgroundImageFix"/>
<feColorMatrix in="SourceAlpha" type="matrix" values="0 0 0 0 0 0 0 0 0 0 0 0 0 0 0 0 0 0 127 0" result="hardAlpha"/>
<feOffset/>
<feGaussianBlur stdDeviation="2"/>
<feComposite in2="hardAlpha" operator="out"/>
<feColorMatrix type="matrix" values="0 0 0 0 1 0 0 0 0 1 0 0 0 0 1 0 0 0 0.25 0"/>
<feBlend mode="normal" in2="BackgroundImageFix" result="effect1_dropShadow_351_31"/>
<feBlend mode="normal" in="SourceGraphic" in2="effect1_dropShadow_351_31" result="shape"/>
</filter>
</defs>
</svg>
