<svg width="306" height="306" viewBox="0 0 306 306" fill="none" xmlns="http://www.w3.org/2000/svg">
<path d="M208.67 249.695L208.956 249.693L209.1 249.446L265.558 152.57L265.704 152.32L265.559 152.069L209.891 55.6488L209.746 55.3977L209.456 55.3988L97.3299 55.8549L97.044 55.856L96.9 56.1031L40.4421 152.979L40.296 153.23L40.441 153.481L96.1091 249.901L96.2541 250.152L96.5441 250.151L208.67 249.695Z" fill="black" stroke="white"/>
<path d="M154.256 149.828C154.93 150.502 155.941 150.839 156.614 150.839C157.288 150.839 158.299 150.502 158.972 149.828L196.027 112.773C197.375 111.426 197.375 109.405 196.027 108.057C194.68 106.71 192.659 106.71 191.311 108.057L154.256 145.112C152.909 146.46 152.909 148.481 154.256 149.828Z" fill="white"/>
<path d="M119.559 167.682C119.559 177.114 126.97 184.525 136.402 184.525C145.834 184.525 153.246 177.114 153.246 167.682C153.246 158.25 145.834 150.839 136.402 150.839C126.97 150.839 119.559 158.25 119.559 167.682Z" fill="white"/>
<path d="M199.396 145.112C198.048 143.765 196.027 143.765 194.68 145.112L153.245 184.189C144.15 193.284 128.991 193.284 119.896 184.189C110.8 175.093 110.8 159.934 119.896 150.839L162.341 112.773C163.688 111.426 163.688 109.405 162.677 108.057C161.33 106.71 159.309 106.71 157.961 107.72L114.843 146.123C103.052 157.913 103.052 177.114 114.843 188.905C120.906 194.968 128.654 198 136.402 198C144.15 198 151.898 194.968 157.624 189.242L199.059 149.828C200.743 148.481 200.743 146.46 199.396 145.112Z" fill="white"/>
</svg>
