<svg width="306" height="306" viewBox="0 0 306 306" fill="none" xmlns="http://www.w3.org/2000/svg">
<path d="M208.67 249.695L208.956 249.693L209.1 249.446L265.558 152.57L265.704 152.32L265.559 152.069L209.891 55.6488L209.746 55.3977L209.456 55.3988L97.3299 55.8549L97.044 55.856L96.9 56.1031L40.4421 152.979L40.296 153.23L40.441 153.481L96.1091 249.901L96.2541 250.152L96.5441 250.151L208.67 249.695Z" fill="black" stroke="white"/>
<path d="M153 127.5C138.793 127.5 127.5 138.793 127.5 153C127.5 167.207 138.793 178.5 153 178.5C167.207 178.5 178.5 167.207 178.5 153C178.5 138.793 167.207 127.5 153 127.5Z" fill="#DCDCDC"/>
<path d="M195.621 124.95C196.35 123.493 196.714 122.036 196.714 120.214C196.714 114.021 191.979 109.286 185.786 109.286C183.964 109.286 182.507 109.65 181.05 110.379C172.671 104.914 163.2 102 153 102C124.95 102 102 124.95 102 153C102 181.05 124.95 204 153 204C181.05 204 204 181.05 204 153C204 142.8 201.086 133.329 195.621 124.95ZM153 196.714C128.957 196.714 109.286 177.043 109.286 153C109.286 128.957 128.957 109.286 153 109.286C161.014 109.286 169.029 111.471 175.95 115.843C175.221 116.936 174.857 118.757 174.857 120.214C174.857 126.407 179.593 131.143 185.786 131.143C187.243 131.143 189.064 130.779 190.157 130.05C194.529 136.971 196.714 144.621 196.714 153C196.714 177.043 177.043 196.714 153 196.714Z" fill="#DCDCDC"/>
</svg>
